PathFileType	4	(x/y/z)	A01_STANDINGCAL_T0011.trc
DataRate	CameraRate	NumFrames	NumMarkers	Units	OrigDataRate	OrigDataStartFrame	OrigNumFrames
240	240	11	48	mm	240	151	1200
Frame#	Time	TOP_HEAD			R_AC			L_AC			R_ASIS			L_ASIS			R_PSIS			L_PSIS			SACRAL			L_IC			R_IC			L_GT			R_GT			R_LAT_KNEE			R_MED_KNEE			L_MED_KNEE			L_LAT_KNEE			R_TOE			L_TOE			R_1ST_MET			L_1ST_MET			L_5TH_MET			R_5TH_MET			R_LAT_ANK			R_MED_ANK			L_MED_ANK			L_LAT_ANK			L_HEEL_SUP			R_HEEL_SUP			L_HEEL_LAT			R_HEEL_LAT			L_HEEL_MED			R_HEEL_MED			R_LL_PROX_POST			R_LL_PROX_ANT			R_LL_DIST_ANT			R_LL_DIST_POST			R_THIGH_PROX_POST			R_THIGH_PROX_ANT			R_THIGH_DIST_ANT			R_THIGH_DIST_POST			L_PROS_PROX_ANT			L_PROS_PROX_POST			L_PROS_DIST_POST			L_PROS_DIST_ANT			L_THIGH_PROX_ANT			L_THIGH_PROX_POST			L_THIGH_DIST_POST			L_THIGH_DIST_ANT			
		X1	Y1	Z1	X2	Y2	Z2	X3	Y3	Z3	X4	Y4	Z4	X5	Y5	Z5	X6	Y6	Z6	X7	Y7	Z7	X8	Y8	Z8	X9	Y9	Z9	X10	Y10	Z10	X11	Y11	Z11	X12	Y12	Z12	X13	Y13	Z13	X14	Y14	Z14	X15	Y15	Z15	X16	Y16	Z16	X17	Y17	Z17	X18	Y18	Z18	X19	Y19	Z19	X20	Y20	Z20	X21	Y21	Z21	X22	Y22	Z22	X23	Y23	Z23	X24	Y24	Z24	X25	Y25	Z25	X26	Y26	Z26	X27	Y27	Z27	X28	Y28	Z28	X29	Y29	Z29	X30	Y30	Z30	X31	Y31	Z31	X32	Y32	Z32	X33	Y33	Z33	X34	Y34	Z34	X35	Y35	Z35	X36	Y36	Z36	X37	Y37	Z37	X38	Y38	Z38	X39	Y39	Z39	X40	Y40	Z40	X41	Y41	Z41	X42	Y42	Z42	X43	Y43	Z43	X44	Y44	Z44	X45	Y45	Z45	X46	Y46	Z46	X47	Y47	Z47	X48	Y48	Z48	

151	0.62552	585.5	1866.5	325.6	577.42	1594.2	492.59	595.24	1604.6	86.951	679.39	1094.1	489.06	711.66	1062.4	132.34	475.12	1100.5	342.15	493.44	1106	213.62	466.39	1075.7	273.39	669.26	1184.6	91.459	623.16	1197.4	499.1	647.04	972.19	84.603	605.87	986.06	517.92	548.55	581.28	470.11	595.55	568.68	345.71	604.97	558.35	305.37	592.52	576.08	147.7	774.76	72.718	452.98	776.8	85.529	172.61	697.99	57.642	395.38	695.89	57.153	225.29	670.07	50.746	95.105	651.45	45.963	523.63	526.44	110.91	476.05	565.43	117.43	378.78	565.27	126.56	208.74	540.09	123.04	141.36	453.79	73.35	173.22	448.39	69.416	408.32	466.09	45.622	142.69	452.1	45.442	443.19	472.32	44.811	206.23	462.85	43.405	381.9	516.2	399.59	501.06	452.23	404.69	466.49	472.25	323.66	468.66	523.81	324.28	492.06	548.5	862.63	494.88	617.22	876.23	514.28	614.32	784.68	508.71	548.82	773.08	489.86	637.72	492.82	156.97	583.75	493.67	143.41	577.3	430.79	146.98	629.73	437.35	159.34	688.51	822.12	127.35	622	834.23	103.6	623.14	759.09	119.02	684.44	748.95	139.94
152	0.62969	585.54	1866.5	325.55	577.44	1594.2	492.57	595.27	1604.5	86.923	679.42	1094.1	489.05	711.68	1062.4	132.33	475.14	1100.5	342.14	493.47	1106	213.61	466.42	1075.7	273.38	669.29	1184.6	91.445	623.18	1197.4	499.09	647.06	972.19	84.589	605.9	986.07	517.92	548.57	581.28	470.1	595.55	568.66	345.7	604.99	558.35	305.36	592.53	576.07	147.69	774.76	72.717	452.98	776.8	85.529	172.61	697.99	57.643	395.38	695.89	57.154	225.29	670.07	50.747	95.104	651.45	45.963	523.63	526.44	110.91	476.05	565.43	117.43	378.78	565.27	126.56	208.74	540.09	123.04	141.36	453.79	73.352	173.22	448.39	69.416	408.32	466.09	45.623	142.69	452.1	45.442	443.19	472.32	44.811	206.23	462.85	43.403	381.9	516.21	399.59	501.06	452.24	404.69	466.49	472.26	323.66	468.66	523.82	324.27	492.06	548.52	862.63	494.87	617.24	876.23	514.27	614.34	784.68	508.7	548.84	773.08	489.84	637.73	492.81	156.96	583.75	493.67	143.41	577.3	430.79	146.98	629.73	437.35	159.34	688.52	822.12	127.34	622.02	834.23	103.59	623.16	759.09	119.01	684.45	748.95	139.93
153	0.63386	585.58	1866.5	325.5	577.47	1594.2	492.55	595.29	1604.5	86.895	679.45	1094.1	489.04	711.71	1062.4	132.32	475.17	1100.5	342.13	493.5	1106	213.59	466.44	1075.7	273.36	669.31	1184.6	91.431	623.21	1197.4	499.08	647.08	972.18	84.575	605.93	986.08	517.92	548.58	581.28	470.1	595.55	568.65	345.7	605	558.35	305.36	592.53	576.07	147.68	774.76	72.717	452.98	776.8	85.53	172.61	697.99	57.644	395.38	695.89	57.156	225.29	670.07	50.748	95.104	651.45	45.963	523.63	526.44	110.91	476.05	565.43	117.43	378.78	565.26	126.56	208.74	540.09	123.04	141.36	453.79	73.352	173.22	448.38	69.417	408.32	466.09	45.623	142.69	452.1	45.442	443.2	472.32	44.811	206.22	462.85	43.401	381.9	516.21	399.59	501.05	452.25	404.69	466.48	472.27	323.67	468.66	523.83	324.27	492.06	548.54	862.63	494.87	617.26	876.23	514.26	614.36	784.67	508.69	548.86	773.08	489.83	637.73	492.81	156.96	583.76	493.67	143.4	577.31	430.79	146.97	629.73	437.35	159.33	688.54	822.11	127.33	622.03	834.23	103.58	623.17	759.09	119	684.47	748.94	139.93
154	0.63803	585.62	1866.5	325.46	577.49	1594.2	492.53	595.32	1604.5	86.868	679.47	1094.1	489.03	711.73	1062.4	132.3	475.2	1100.5	342.12	493.53	1106	213.58	466.46	1075.7	273.35	669.34	1184.6	91.418	623.24	1197.4	499.06	647.1	972.18	84.562	605.95	986.09	517.92	548.6	581.28	470.09	595.55	568.64	345.69	605.02	558.35	305.35	592.54	576.07	147.68	774.76	72.716	452.98	776.8	85.53	172.61	697.98	57.644	395.38	695.89	57.157	225.29	670.07	50.749	95.104	651.45	45.964	523.63	526.44	110.91	476.05	565.43	117.43	378.78	565.26	126.56	208.74	540.09	123.04	141.36	453.79	73.353	173.22	448.38	69.418	408.32	466.09	45.623	142.69	452.1	45.442	443.2	472.32	44.811	206.22	462.85	43.4	381.91	516.22	399.59	501.05	452.26	404.7	466.48	472.27	323.67	468.65	523.83	324.27	492.06	548.56	862.63	494.86	617.28	876.23	514.25	614.38	784.67	508.68	548.87	773.08	489.81	637.74	492.81	156.96	583.76	493.67	143.4	577.31	430.79	146.97	629.74	437.35	159.33	688.55	822.11	127.32	622.05	834.22	103.57	623.19	759.08	118.99	684.49	748.94	139.92
155	0.6422	585.67	1866.5	325.41	577.52	1594.2	492.51	595.35	1604.5	86.841	679.5	1094.1	489.02	711.76	1062.4	132.29	475.22	1100.5	342.11	493.55	1106	213.56	466.49	1075.7	273.33	669.37	1184.6	91.405	623.26	1197.4	499.05	647.13	972.18	84.548	605.98	986.1	517.92	548.61	581.29	470.09	595.55	568.63	345.68	605.03	558.36	305.35	592.55	576.07	147.67	774.76	72.715	452.98	776.8	85.531	172.61	697.98	57.644	395.38	695.89	57.158	225.29	670.07	50.75	95.104	651.45	45.964	523.63	526.44	110.91	476.05	565.43	117.43	378.78	565.26	126.56	208.74	540.09	123.04	141.36	453.79	73.353	173.22	448.38	69.419	408.32	466.09	45.624	142.7	452.1	45.442	443.2	472.32	44.811	206.22	462.85	43.4	381.91	516.23	399.59	501.05	452.27	404.7	466.48	472.28	323.68	468.65	523.84	324.27	492.05	548.58	862.63	494.86	617.3	876.23	514.25	614.41	784.67	508.68	548.89	773.09	489.8	637.75	492.8	156.95	583.77	493.67	143.39	577.32	430.79	146.97	629.74	437.34	159.33	688.57	822.11	127.31	622.07	834.22	103.57	623.21	759.08	118.98	684.5	748.94	139.91
156	0.64637	585.71	1866.5	325.37	577.54	1594.2	492.49	595.38	1604.5	86.815	679.53	1094.1	489.01	711.78	1062.4	132.28	475.25	1100.5	342.09	493.58	1106	213.55	466.51	1075.7	273.32	669.4	1184.5	91.392	623.29	1197.4	499.04	647.15	972.17	84.535	606.01	986.11	517.91	548.63	581.29	470.08	595.55	568.63	345.67	605.04	558.36	305.34	592.56	576.07	147.67	774.76	72.714	452.98	776.8	85.532	172.61	697.98	57.644	395.38	695.89	57.159	225.29	670.07	50.751	95.104	651.45	45.965	523.63	526.44	110.91	476.05	565.43	117.43	378.78	565.26	126.56	208.74	540.09	123.04	141.36	453.79	73.352	173.22	448.38	69.42	408.32	466.09	45.624	142.7	452.11	45.442	443.2	472.32	44.811	206.22	462.85	43.401	381.91	516.24	399.59	501.05	452.28	404.71	466.48	472.29	323.68	468.65	523.85	324.26	492.05	548.6	862.63	494.85	617.32	876.23	514.24	614.43	784.67	508.67	548.91	773.09	489.78	637.76	492.8	156.95	583.78	493.67	143.39	577.33	430.78	146.96	629.75	437.34	159.32	688.59	822.1	127.3	622.09	834.22	103.56	623.22	759.08	118.98	684.52	748.94	139.9
157	0.65054	585.75	1866.5	325.32	577.57	1594.1	492.47	595.4	1604.5	86.789	679.56	1094.1	489	711.81	1062.4	132.26	475.28	1100.5	342.08	493.61	1106	213.54	466.54	1075.7	273.3	669.43	1184.5	91.379	623.32	1197.3	499.02	647.17	972.17	84.522	606.03	986.11	517.91	548.64	581.29	470.08	595.55	568.62	345.67	605.06	558.36	305.34	592.57	576.07	147.67	774.76	72.713	452.98	776.8	85.532	172.61	697.98	57.643	395.38	695.89	57.16	225.29	670.07	50.752	95.104	651.46	45.965	523.63	526.44	110.91	476.06	565.43	117.43	378.78	565.26	126.56	208.74	540.09	123.04	141.36	453.79	73.351	173.22	448.38	69.421	408.32	466.09	45.625	142.7	452.11	45.443	443.2	472.32	44.812	206.22	462.85	43.402	381.91	516.25	399.59	501.05	452.29	404.71	466.48	472.3	323.68	468.65	523.86	324.26	492.05	548.62	862.63	494.85	617.35	876.23	514.23	614.45	784.67	508.66	548.93	773.09	489.76	637.77	492.79	156.95	583.79	493.67	143.38	577.33	430.78	146.96	629.76	437.34	159.32	688.61	822.1	127.29	622.11	834.21	103.55	623.24	759.07	118.97	684.54	748.94	139.9
158	0.65471	585.79	1866.5	325.28	577.59	1594.1	492.45	595.43	1604.5	86.763	679.59	1094.1	488.99	711.83	1062.4	132.25	475.31	1100.5	342.07	493.64	1106	213.52	466.56	1075.7	273.29	669.46	1184.5	91.367	623.35	1197.3	499.01	647.2	972.16	84.509	606.06	986.12	517.91	548.66	581.29	470.07	595.56	568.62	345.66	605.07	558.36	305.33	592.58	576.07	147.66	774.76	72.712	452.98	776.8	85.533	172.61	697.98	57.642	395.38	695.89	57.161	225.28	670.07	50.752	95.104	651.46	45.965	523.63	526.44	110.91	476.06	565.44	117.43	378.78	565.26	126.56	208.73	540.1	123.04	141.36	453.79	73.35	173.22	448.39	69.423	408.32	466.09	45.626	142.7	452.11	45.443	443.2	472.32	44.812	206.22	462.85	43.405	381.91	516.26	399.6	501.05	452.3	404.72	466.48	472.3	323.69	468.65	523.87	324.26	492.04	548.64	862.62	494.84	617.37	876.23	514.22	614.48	784.67	508.65	548.95	773.1	489.75	637.78	492.79	156.94	583.79	493.67	143.38	577.34	430.78	146.96	629.76	437.34	159.32	688.62	822.09	127.28	622.13	834.21	103.54	623.26	759.07	118.96	684.55	748.93	139.89
159	0.65888	585.83	1866.5	325.24	577.62	1594.1	492.43	595.46	1604.5	86.738	679.62	1094.1	488.98	711.86	1062.4	132.24	475.34	1100.5	342.06	493.67	1106	213.51	466.59	1075.7	273.28	669.49	1184.5	91.354	623.38	1197.3	499	647.22	972.16	84.496	606.09	986.13	517.91	548.67	581.29	470.07	595.56	568.62	345.65	605.08	558.36	305.33	592.59	576.07	147.66	774.76	72.711	452.98	776.8	85.533	172.61	697.98	57.641	395.38	695.9	57.162	225.28	670.07	50.753	95.104	651.46	45.965	523.63	526.45	110.92	476.06	565.44	117.43	378.78	565.26	126.56	208.73	540.1	123.04	141.36	453.79	73.349	173.22	448.39	69.424	408.32	466.09	45.626	142.7	452.11	45.444	443.2	472.32	44.813	206.22	462.85	43.408	381.91	516.27	399.6	501.04	452.31	404.72	466.48	472.31	323.69	468.65	523.88	324.26	492.04	548.67	862.62	494.84	617.39	876.23	514.22	614.5	784.67	508.65	548.97	773.1	489.74	637.79	492.78	156.94	583.8	493.67	143.38	577.35	430.78	146.95	629.77	437.34	159.31	688.64	822.09	127.28	622.15	834.2	103.53	623.28	759.06	118.95	684.57	748.93	139.88
160	0.66305	585.86	1866.5	325.2	577.65	1594.1	492.41	595.49	1604.4	86.713	679.65	1094.1	488.97	711.89	1062.3	132.23	475.37	1100.5	342.05	493.69	1106	213.5	466.61	1075.7	273.26	669.52	1184.5	91.341	623.41	1197.3	498.99	647.25	972.15	84.483	606.11	986.13	517.9	548.68	581.3	470.07	595.57	568.61	345.65	605.1	558.36	305.33	592.6	576.07	147.65	774.77	72.71	452.98	776.8	85.533	172.61	697.98	57.639	395.38	695.9	57.163	225.28	670.08	50.754	95.104	651.46	45.965	523.62	526.45	110.92	476.06	565.44	117.43	378.78	565.26	126.56	208.73	540.1	123.04	141.36	453.79	73.347	173.22	448.39	69.426	408.32	466.09	45.627	142.7	452.11	45.445	443.2	472.32	44.814	206.22	462.85	43.413	381.9	516.28	399.6	501.04	452.32	404.73	466.48	472.32	323.7	468.65	523.89	324.25	492.04	548.69	862.62	494.83	617.42	876.23	514.21	614.52	784.67	508.64	548.98	773.1	489.72	637.8	492.78	156.94	583.81	493.67	143.37	577.36	430.78	146.95	629.78	437.34	159.31	688.66	822.08	127.27	622.17	834.2	103.52	623.3	759.06	118.94	684.59	748.93	139.88
161	0.66722	585.9	1866.5	325.16	577.68	1594.1	492.39	595.51	1604.4	86.688	679.68	1094.1	488.96	711.91	1062.3	132.22	475.39	1100.4	342.04	493.72	1106	213.48	466.64	1075.7	273.25	669.55	1184.5	91.329	623.44	1197.3	498.98	647.27	972.15	84.471	606.14	986.13	517.9	548.7	581.3	470.06	595.58	568.61	345.64	605.11	558.36	305.32	592.61	576.06	147.65	774.77	72.709	452.98	776.8	85.533	172.61	697.98	57.638	395.38	695.9	57.163	225.28	670.08	50.754	95.104	651.46	45.965	523.62	526.45	110.92	476.06	565.44	117.43	378.78	565.26	126.56	208.73	540.1	123.04	141.36	453.79	73.346	173.22	448.39	69.428	408.32	466.09	45.628	142.7	452.11	45.446	443.2	472.32	44.815	206.22	462.85	43.418	381.9	516.29	399.6	501.04	452.32	404.73	466.48	472.33	323.7	468.64	523.9	324.25	492.03	548.71	862.62	494.83	617.44	876.23	514.2	614.55	784.67	508.63	549	773.11	489.71	637.81	492.77	156.94	583.82	493.67	143.37	577.37	430.78	146.95	629.78	437.34	159.31	688.68	822.08	127.26	622.19	834.2	103.52	623.32	759.06	118.94	684.61	748.93	139.87
